<svg width="16" height="19" viewBox="0 0 16 19" fill="none" xmlns="http://www.w3.org/2000/svg">
<path d="M8 0.882385C10.1217 0.882385 12.1566 1.72524 13.6569 3.22553C15.1571 4.72582 16 6.76065 16 8.88239C16 11.6148 14.5102 13.8513 12.9404 15.4557C12.156 16.2485 11.3003 16.9674 10.384 17.6033L10.0053 17.8611L9.82756 17.9793L9.49244 18.1926L9.19378 18.3748L8.824 18.5899C8.57289 18.7329 8.28893 18.808 8 18.808C7.71107 18.808 7.42711 18.7329 7.176 18.5899L6.80622 18.3748L6.344 18.0904L6.17333 17.9793L5.80889 17.7366C4.82042 17.0676 3.89962 16.3036 3.05956 15.4557C1.48978 13.8495 0 11.6148 0 8.88239C0 6.76065 0.842855 4.72582 2.34315 3.22553C3.84344 1.72524 5.87827 0.882385 8 0.882385ZM8 6.21572C7.64981 6.21572 7.30305 6.28469 6.97951 6.41871C6.65598 6.55272 6.362 6.74914 6.11438 6.99677C5.86676 7.24439 5.67033 7.53836 5.53632 7.8619C5.40231 8.18543 5.33333 8.53219 5.33333 8.88239C5.33333 9.23258 5.40231 9.57934 5.53632 9.90287C5.67033 10.2264 5.86676 10.5204 6.11438 10.768C6.362 11.0156 6.65598 11.2121 6.97951 11.3461C7.30305 11.4801 7.64981 11.5491 8 11.5491C8.70724 11.5491 9.38552 11.2681 9.88562 10.768C10.3857 10.2679 10.6667 9.58963 10.6667 8.88239C10.6667 8.17514 10.3857 7.49686 9.88562 6.99677C9.38552 6.49667 8.70724 6.21572 8 6.21572Z" fill="#0047FF"/>
</svg>
